<svg id="layer_1" data-name="Layer 1" xmlns="http://www.w3.org/2000/svg" viewBox="0 0 53.83 81.27">
<title>megacarwash</title>
<polygon points="37.27 50.51 37.27 65.7 26.86 55.22 26.7 55.22 16.57 65.35 16.57 48.74 16.58 48.74 16.57 34.08 0.14 50.51 0 50.63 0 81.27 18.63 81.22 26.74 73.1 34.79 81.27 53.83 81.27 53.78 34 37.27 50.51"/>
<polygon points="16.56 30.76 16.56 15.57 26.97 26.05 27.13 26.05 37.26 15.92 37.26 32.54 37.25 32.54 37.26 47.19 53.69 30.76 53.83 30.64 53.83 0 35.2 0.06 27.08 8.18 19.03 0 0 0 0.05 47.27 16.56 30.76"/>
<path d="M49.73,42.32a4,4,0,1,1,0-2.36h4.1a8,8,0,1,0,0,2.36Z" transform="translate(-18.97)"/>
</svg>